<?xml version="1.0" encoding="utf-8"?>
<!-- Generated by IcoMoon.io -->
<svg version="1.1" xmlns="http://www.w3.org/2000/svg" xmlns:xlink="http://www.w3.org/1999/xlink" width="752" height="32" viewBox="0 0 752 32">
<svg id="icon-carrot" viewBox="0 0 32 32" x="0" y="0">
<path d="M26.831 10.782c-0.293-0.454-0.632-0.873-1.023-1.264l-2.835-2.834c-0.375-0.374-0.789-0.71-1.234-1.001l-0.030-0.018c0.408-0.918 1.211-2.863 1.532-4.591 0.112-0.6 0.89-0.771 1.25-0.279 0.614 0.845 1.222 1.931 1.041 2.744l4.203-1.686c0.569-0.23 1.139 0.339 0.908 0.908l-1.69 4.198c0.813-0.181 1.9 0.426 2.744 1.040 0.496 0.36 0.321 1.138-0.279 1.25-1.728 0.321-3.673 1.124-4.588 1.533zM24.536 19.606l-5.98-3.424 3.002 5.242-10.941 6.148-3.924-2.116 1.787 3.316-5.324 2.991c-0.254 0.147-0.558 0.235-0.883 0.237h-0.001c-1.25 0-2.266-1.389-1.546-2.671l6.849-12.185 4.856 2.946-3.379-5.571 3.114-5.532c1.169-2.081 3.299-3.187 5.453-3.187 0.003 0 0.007 0 0.010 0 1.718 0 3.273 0.699 4.396 1.829l2.835 2.834c2.618 2.622 2.35 6.831-0.325 9.142z"></path>
</svg>
<svg id="icon-chart" viewBox="0 0 34 32">
<path d="M33.137 6.021l-2.735 11.404c-0.132 0.534-0.607 0.924-1.172 0.924-0 0-0.001 0-0.001 0h-14.766c-0.524 0-0.989-0.338-1.148-0.839l-3.63-11.351c-0.058-0.177-0.092-0.38-0.092-0.591 0-0.43 0.14-0.827 0.376-1.149l-0.004 0.005c0.357-0.484 0.925-0.795 1.566-0.795h19.721c1.070 0.001 1.938 0.868 1.938 1.939 0 0.161-0.020 0.317-0.056 0.466l0.003-0.013zM34.073 22.263c0 0 0 0.001 0 0.001 0 0.975-0.79 1.765-1.765 1.765h-19.045c-0.003 0-0.006 0-0.009 0-2.247 0-4.153-1.463-4.817-3.488l-0.010-0.036-5.242-16.256c-0.023-0.070-0.087-0.119-0.163-0.119-0 0-0 0-0 0h-1.146c-0.975 0-1.766-0.791-1.766-1.766s0.791-1.766 1.766-1.766v0h1.146c0.002 0 0.004 0 0.006 0 1.638 0 3.027 1.066 3.51 2.543l0.007 0.026 5.243 16.256c0.206 0.628 0.787 1.074 1.473 1.074 0.001 0 0.002 0 0.004 0h19.044c0.975 0 1.765 0.791 1.765 1.766v0zM17.329 28.88c0 1.555-1.26 2.815-2.815 2.815s-2.815-1.26-2.815-2.815v0c-0-0.019-0.001-0.041-0.001-0.064 0-1.555 1.261-2.816 2.816-2.816s2.816 1.261 2.816 2.816c0 0.023-0 0.045-0.001 0.067l0-0.003zM32.115 28.88c0 1.555-1.26 2.815-2.815 2.815s-2.815-1.26-2.815-2.815v0c0-0 0-0 0-0.001 0-1.555 1.26-2.815 2.814-2.816h0c1.555 0 2.815 1.261 2.815 2.816 0 0 0 0 0 0.001v-0z"></path>
</svg>
<svg id="icon-globe" viewBox="0 0 32 32">
<path d="M24.344 22.161c0.379 0.027 0.761 0.053 1.136 0.069-0.971 1.448-2.226 2.631-3.694 3.49l-0.053 0.029c-1.411 0.832-3.087 1.371-4.878 1.49l-0.034 0.002c0.177-0.344 0.354-0.696 0.525-1.053 0.975-0.123 1.861-0.366 2.69-0.716l-0.066 0.025c0.010-0.020 0.019-0.034 0.023-0.051 0.030-0.107 0.126-0.217 0.126-0.217l-0.050-0.124 0.11-0.156s0.124-0.202 0.201-0.263c0.077-0.061 0.729-0.624 0.87-0.73 0.123-0.097 0.663-0.503 0.899-0.695 0.033-0.026 0.058-0.051 0.081-0.067 0.155-0.14 0.452-0.514 0.558-0.687 0.053-0.079 0.134-0.279 0.21-0.47 0.452 0.050 0.901 0.092 1.346 0.126zM22.999 22.035v0zM13.361 22.964c0.005 0.003 0.009 0.005 0.012 0.007l-0.002-0.001 0.001 0.004c-0.007-0.004-0.010-0.006-0.013-0.008l0.004 0.002c0.001 0.001 0.002 0.002 0.002 0.004l0.008 0.004c0.027 0.074 0.015 0.203 0.025 0.257 0.016 0.078 0.124-0.015 0.203-0.015 0.059 0 0.073 0.046 0.14 0.089 0.022 0.014 0.047 0.026 0.074 0.035l0.002 0.001c0.139 0.046 0.17-0.047 0.17-0.047l0.156 0.186 0.124 0.171-0.124 0.297-0.108 0.108s0.018-0.14 0-0.252c-0.017-0.107-0.108 0.050-0.108 0.050l-0.094 0.295 0.34 0.329 0.103 0.092 0.223 0.204 0.015 0.040 0.127 0.366-0.018 0.124 0.078 0.204s-0.098 0.042-0.187 0.062c-0.027 0.008-0.059 0.014-0.091 0.015l-0.001 0c-0.046 0-0.1 0.054-0.145 0.108-0.049 0.059-0.088 0.124-0.088 0.124s0.036 0.069 0.088 0.142c0.032 0.047 0.070 0.088 0.113 0.122l0.001 0.001c0.022 0.018 0.041 0.025 0.060 0.041 0.018 0.002 0.033 0.007 0.050 0.009-0.003 0.008-0.007 0.014-0.011 0.020l0-0h0.002l-0.046 0.079c-0.135 0.233-0.305 0.521-0.5 0.825-1.225-0.243-2.315-0.648-3.312-1.2l0.058 0.030c0.030 2.041 0.411 3.364 1.157 3.564 1.412 0.379 3.703-3.392 5.593-8.907-1.195-0.262-2.008-0.468-2.814-0.693l0.392 0.093c-8.654-2.325-15.191-6.005-14.6-8.216 0.316-1.179 2.592-1.703 5.963-1.585-0.039 0.066-0.076 0.136-0.113 0.201 1.007-1.764 2.422-3.192 4.12-4.186l0.053-0.029c1.613-0.953 3.555-1.516 5.628-1.516 0.027 0 0.053 0 0.080 0l-0.004-0c-0.068-0.001-0.138-0.004-0.209-0.003 1.582-2.983 3.176-4.701 4.351-4.385 2.206 0.593 2.116 8.111-0.203 16.785-0.216 0.822-0.45 1.624-0.69 2.403 5.71 1.117 10.108 1.015 10.493-0.403 0.199-0.747-0.754-1.738-2.503-2.785v-0.014c-0.032 1.235-0.255 2.407-0.641 3.502l0.024-0.080c-0.361 0.020-0.693 0.021-0.961 0.021-0.219 0-0.391-0.004-0.492-0.008-0.294-0.011-0.588-0.024-0.884-0.046 0.052-0.183 0.099-0.316 0.107-0.392 0.015-0.095 0.068-0.241 0.068-0.241l-0.347-0.080-0.040-0.228-0.146-0.026-0.135 0.257s-0.105 0.16-0.227 0.225c-0.119 0.065-0.279 0.079-0.279 0.079l0.038-0.184c-0.064-0.028-0.199 0.025-0.199 0.025l-0.015-0.175s-0.079-0.175-0.146-0.186c-0.066-0.015-0.175-0.161-0.175-0.161s-0.040-0.055-0.079-0.162c-0.003-0.004-0.007-0.008-0.012-0.011l-0-0 0.020-0.092s0.126-0.14 0.231-0.264c0.104-0.124 0.139 0.124 0.247 0.215 0.107 0.089 0.071 0.229 0.071 0.229s0.070 0.036 0.159 0.036c0.091 0 0.124 0.070 0.124 0.070l0.178 0.071 0.178-0.197s0.034-0.124 0.158-0.124c0.124 0 0.020 0.16 0.020 0.25 0 0.089 0.089 0 0.335-0.107 0.248-0.104 0.14-0.088 0.372-0.213s0.107-0.089 0.194-0.159c0.091-0.070 0.16-0.141 0.16-0.141l0.194 0.126 0.215-0.037 0.213-0.124v0.161s-0.14 0.178-0.054 0.299c0.089 0.125 0.105 0.089 0.055 0.249-0.055 0.16-0.020 0.16 0 0.25 0.014 0.065 0.018 0.074 0.018 0.113 0.805-2.642 0.561-5.596-0.925-8.177-0.707-1.221-1.614-2.245-2.687-3.062l-0.025-0.018c0.031-0.396 0.055-0.788 0.072-1.179 1.445 0.975 2.624 2.234 3.479 3.705l0.029 0.054c0.951 1.618 1.512 3.564 1.512 5.641 0 0.006 0 0.011 0 0.017v-0.001l0.001-0.146c2.97 1.584 4.681 3.18 4.367 4.361-0.501 1.87-5.938 2.094-12.836 0.712-2.258 6.68-5.17 11.289-7.035 10.789-1.176-0.316-1.7-2.602-1.581-5.982 0.040 0.021 0.081 0.046 0.12 0.066-1.723-1.009-3.118-2.407-4.094-4.080l-0.029-0.053c-0.831-1.416-1.369-3.097-1.488-4.892l-0.002-0.034c0.328 0.171 0.661 0.335 0.999 0.5 0.95 0.474 2.192 1.008 3.461 1.484l0.301 0.099h-0.004l0.004 0.068-0.185 0.328-0.172 0.107 0.047 0.078 0.030 0.156h-0.095v0.343c0 0.124 0.25 0.171 0.25 0.171l-0.077 0.049s0.016 0.076 0.093 0.201c0.078 0.126 0.139 0.236 0.171 0.342 0.031 0.109 0.077 0.418 0.077 0.418s0.204 0.343 0.296 0.486c0.094 0.138 0.28 0.327 0.358 0.482s0.248 0.077 0.574 0.156c0.327 0.077 0.465 0.187 0.465 0.187s0.172 0.139 0.281 0.203c0.107 0.060 0.216 0.060 0.511 0.060 0.283 0 0.098 0.017 0.443 0.071l0.056 0.008c0.414 0.060 0.087 0.031 0.481 0.212l0.016 0.008 0.134 0.058 0.034 0.018c-0.001-0.002-0.002-0.003-0.003-0.005l0 0.001zM13.315 22.926c0.020 0.003 0.035 0.018 0.046 0.038-0.004-0.002-0.015-0.007-0.025-0.012l-0.006-0.003c-0.026-0.015-0.045-0.028-0.015-0.024zM21.878 22.020c0.027-0.011-0.039-0.073-0.137-0.15 0.138 0.023 0.277 0.039 0.415 0.059 0.137 0.020 0.279 0.037 0.416 0.055l-0.013 0.007c-0.171 0.094-0.264 0.141-0.373 0.141h-0.033c-0.111 0.003-0.259 0.014-0.372 0-0.123-0.016 0.016-0.079 0.096-0.113zM16.888 14.6l-0.017-0.019s0.026 0.002 0.017 0.019zM20.734 17.038s-0.036 0.222-0.036 0.315c0 0.092 0.073 0.129 0.073 0.295 0 0.085-0.031 0.154-0.057 0.203-0.007-0.002-0.030-0.007-0.052-0.011l-0.014-0.002s-0.070 0.135-0.094 0.255c-0.015 0.070-0.059 0.128-0.118 0.161l-0.001 0.001s-0.079-0.008-0.165-0.009c0.105-0.367 0.205-0.735 0.304-1.098l0.021-0.089h0.024zM20.201 18.786c0.026 0.108 0.026 0.16 0.026 0.16s-0.011 0.032-0.030 0.073c0.141 0.429 0.125 0.386 0.109 0.344l-0.156-0.472-0.076 0.014 0.050-0.168c0.039 0.015 0.074 0.033 0.078 0.050zM21.428 15.368c0.089 0.067 0.146 0.173 0.146 0.291 0 0.007-0 0.015-0.001 0.022l0-0.001c0 0.185-0.010 0.078-0.039 0.146-0.030 0.071-0.056 0.051-0.223 0.051-0.166 0-0.011 0-0.235-0.012-0.157-0.006-0.129-0.014-0.168-0.038 0.057-0.221 0.108-0.444 0.162-0.668l0.024 0.012c0.175 0.078 0.273 0.149 0.332 0.197zM13.372 22.974c0.018 0.009 0.027 0.014 0.001 0.002-0.001-0.002-0.001-0.002-0.002-0.003l0 0.001zM18.218 7.835s0.112-0.063 0.167-0.088c0.058-0.024 0-0.030-0.055-0.070s-0.127 0.031-0.127 0.031-0.031 0.032-0.063 0.103c-0.002 0.006-0.005 0.011-0.008 0.016l0-0c-0.031 0.037-0.064-0.059-0.071-0.11-0.008-0.057-0.215-0.018-0.207-0.018 0.009 0 0.049 0.103 0.049 0.103s0.017 0.097 0.017 0.136c0 0.040 0 0.11 0.031 0.159s0.119 0.12 0.119 0.12l0.063-0.040 0.023-0.017 0.097-0.159 0.079-0.071zM16.948 7.129s0.013-0.113 0.075-0.098c0.062 0.011 0.124-0.151 0.124-0.151s-0.051-0.099-0.112-0.099c-0.063 0-0.199 0.013-0.199 0.013l-0.038-0.076s-0.075-0.012-0.175 0.025c-0.101 0.038-0.126-0.050-0.126-0.050l-0.012-0.15-0.138 0.038-0.1-0.088s-0.037-0.075 0.025-0.075c0.061 0 0.148 0.013 0.148 0.013l0.126-0.088-0.050-0.099 0.087-0.099s-0.174-0.089-0.212-0.024c-0.037 0.060-0.175 0.111-0.175 0.111s0.014-0.038-0.061-0.138c-0.073-0.101 0.037-0.15-0.126-0.113-0.084 0.021-0.157 0.057-0.221 0.106l0.001-0.001c-0.036 0.024-0.055 0.044-0.055 0.044s-0.175 0.037-0.185 0.1c-0.014 0.060 0.212 0.1 0.212 0.1s0.012-0.018 0.028-0.033c0.033-0.036 0.092-0.085 0.135-0.041 0.061 0.062 0.111 0.138 0.111 0.138l-0.236 0.124-0.009-0.008-0.117-0.092h-0.236l-0.112 0.050-0.225 0.025s0.039 0.111 0.039 0.175c0 0.064-0.1 0.126-0.1 0.126l-0.133-0.012-0.017-0.001-0.138 0.099s-0.149 0.013-0.212 0.061c-0.008 0.009-0.019 0.014-0.032 0.017l-0 0c-0.057 0.015-0.117-0.024-0.117 0.059 0 0.1 0.012 0.15-0.061 0.163-0.014 0.004-0.034 0.008-0.054 0.011l-0.005 0.001-0.178 0.039s-0.075 0.037-0.137 0.1c-0.060 0.060-0.2 0.1-0.2 0.1l-0.020-0.006-0.229-0.046-0.324 0.139-0.009 0.020-0.066 0.156-0.213 0.025s-0.175 0.087-0.187 0.149c-0.006 0.031-0.040 0.060-0.069 0.082-0.016 0.011-0.034 0.022-0.053 0.031l-0.002 0.001s-0.124 0.050-0.187 0.098c-0.062 0.049-0.137 0.148-0.137 0.148l-0.052 0.113 0.089 0.126-0.2 0.024 0.024 0.1c0.1 0.1 0.163 0.149 0.225 0.1 0.061-0.052 0.024-0.089 0.098-0.113 0.044-0.017 0.123-0.043 0.192-0.068 0.050-0.018 0.095-0.034 0.12-0.046 0.062-0.024 0.162-0.111 0.236-0.111 0.076 0 0.149-0.012 0.149-0.012l0.030-0.024 0.169-0.139 0.2 0.089 0.163-0.024s0 0.041 0.029 0.072c0.012 0.011 0.025 0.020 0.046 0.026 0.073 0.025 0.186 0.025 0.186 0.025s0.062-0.088 0.15-0.088h0.223l0.025-0.112 0.14 0.065 0.020 0.010 0.113 0.087s-0.050 0.013 0.075 0.063c0.076 0.030 0.146 0.020 0.191 0.006 0.027-0.009 0.046-0.020 0.046-0.020l0.213 0.050s0.013-0.2-0.050-0.2c-0.064 0-0.186-0.062-0.186-0.062l0.137-0.050 0.149-0.025 0.038 0.163 0.236-0.076-0.037-0.137 0.012-0.213 0.224 0.037 0.014 0.149s0.043 0.020 0.092 0.030c0.053 0.015 0.107 0.017 0.107-0.030 0-0.088-0.050-0.149 0.012-0.149s0.188-0.037 0.188-0.037l0.060-0.089 0.089-0.2 0.098 0.151 0.138-0.088-0.025-0.126 0.299-0.138s0.177-0.025 0.252-0.025c0.073 0 0.098-0.023 0.098-0.023s0.050-0.101-0.025-0.101c-0.071 0.003-0.132-0.057-0.132-0.057zM13.968 11.967l-0.124 0.060 0.287 0.139 0.141 0.007 0.105 0.006s0.076-0.126 0.089-0.25c0.006-0.059 0.020-0.083 0.043-0.101 0.025-0.020 0.064-0.033 0.119-0.074 0.098-0.074 0.076-0.1 0.051-0.174-0.020-0.057-0.119-0.050-0.17-0.043l-0.030 0.004-0.207 0.103-0.018 0.010-0.099-0.126-0.138 0.038-0.133 0.135c0.018 0 0.085 0.017 0.085 0.017s0.036-0.014 0.137 0c0.099 0.013-0.025 0.099-0.025 0.099l-0.199 0.050zM13.883 11.701c-0.005 0-0.006 0.001-0.004 0.003zM14.443 9.042l-0.171 0.011h-0.005s-0.033 0.178 0.005 0.284l0.007 0.019c0.045 0.087 0.129 0.148 0.229 0.159l0.001 0c0.048 0.007 0.103 0.005 0.17-0.010 0.111-0.024 0.145-0.031 0.151-0.031l-0.015 0.006s0.021-0.006 0.015-0.006l0.077-0.030 0.097-0.039s0.161-0.098 0.161-0.187c0-0.089-0.138-0.062-0.249-0.062h-0.008c-0.103-0.001-0.094-0.016-0.141-0.138-0.050-0.126-0.050 0.073-0.050 0.073s-0.050-0.011-0.098-0.124c-0.051-0.113-0.062-0.2-0.062-0.2l-0.044 0.023-0.14 0.076 0.037 0.075zM14.317 12.629s0.050 0.062 0.126 0.164c0.031 0.043 0.052 0.028 0.066 0 0.020-0.039 0.034-0.101 0.069-0.101 0.062 0 0.014 0.101 0.088 0.089 0.075-0.013 0.236-0.014 0.236-0.014l0.005 0.005 0.107 0.12s0.125-0.062 0.137-0.126c0.013-0.062 0.013-0.062 0.113-0.062s0.062-0.013 0.187-0.113c0.124-0.098-0.038-0.186-0.138-0.237s-0.014-0.138-0.014-0.138l0.014-0.177s0-0.060-0.014-0.15c-0.012-0.087-0.037-0.15-0.050-0.237s-0.099-0.061-0.099-0.061v-0.113s0.187 0 0.249-0.025c0.062-0.024 0-0.15 0-0.15s-0.148-0.060-0.261-0.098c-0.113-0.037-0.038-0.062 0.149-0.075 0.185-0.012 0.025-0.1 0.025-0.1l-0.149-0.087s-0.075 0.1-0.2 0.15c-0.023 0.008-0.042 0.019-0.059 0.034l0-0c-0.044 0.043-0.015 0.095-0.054 0.153v0.098l0.054 0.093 0.033 0.058s-0.012 0.052-0.033 0.106c-0.012 0.028-0.024 0.057-0.041 0.081-0.050 0.075 0.024 0.164 0.024 0.164s0 0.162-0.024 0.251c-0.024 0.087-0.213-0.076-0.213-0.076l-0.037 0.213h-0.173l0.025 0.113 0.042 0.033 0.069 0.055 0.073 0.113-0.142-0.052-0.068-0.023zM12.361 6.991l-0.213 0.225s0.186 0.037 0.25 0.024c0.036-0.007 0.138-0.073 0.242-0.146 0.076-0.052 0.152-0.103 0.207-0.14 0.139-0.088 0.188-0.061 0.188-0.061l0.050 0.098-0.3 0.176 0.35-0.050 0.042-0.039 0.135-0.124 0.138-0.163 0.212 0.013 0.079-0.029 0.181-0.069s0.15-0.098 0.214-0.213c0.048-0.088 0.081-0.037 0.141-0.024 0.018 0.005 0.035 0.005 0.058-0.001 0.098-0.024 0.050-0.113 0.050-0.2 0-0.042 0.059-0.046 0.13-0.045s0.156 0.008 0.195-0.018c0.073-0.052-0.062-0.15-0.162-0.176l-0.033-0.008c-0.078-0.019-0.119-0.028-0.13-0.104-0.008-0.046-0.053-0.060-0.107-0.057s-0.102 0.019-0.143 0.045l0.001-0.001c-0.073 0.051-0.223 0.062-0.175-0.037 0.008-0.016 0.020-0.021 0.027-0.031-0.386 0.082-0.773 0.186-1.156 0.314 0.087-0.002 0.123 0.004 0.18 0.004 0.075 0-0.075 0.089-0.075 0.089s-0.224 0.076-0.288 0.126l-0.007 0.007c-0.054 0.051-0.030 0.132-0.030 0.132h0.030c0.040-0.001 0.113-0.004 0.157-0.013 0.061-0.014 0.113-0.038 0.273-0.139 0.053-0.031 0.083-0.049 0.104-0.059 0.047-0.020 0.049-0.009 0.108-0.041 0.087-0.053 0.024 0.136 0.024 0.136l0.236-0.088 0.192-0.008 0.070-0.004 0.075-0.138-0.145-0.031-0.079-0.019 0.075-0.075h0.004c0.034 0 0.251 0.001 0.319 0.014 0.076 0.011 0 0.099 0 0.099l-0.024 0.098-0.087 0.163s-0.113 0.014-0.199 0.014h-0.009c-0.085 0.005-0.178 0.1-0.178 0.1l-0.175 0.124h-0.251l-0.038 0.137-0.2-0.024s-0.024-0.062-0.037-0.149c-0.014-0.089-0.099 0-0.099 0s-0.036 0.148-0.12 0.212c-0.015 0.012-0.034 0.021-0.054 0.025l-0.001 0c-0.123 0.025-0.224 0.151-0.224 0.151zM15.077 5.668c-0.107 0.010-0.213 0.020-0.32 0.033 0.014 0.003 0.024 0.008 0.059 0.015 0.073 0.012 0.012 0.037 0.012 0.098 0 0.040 0.018 0.057 0.079 0.068 0.031 0.006 0.074 0.011 0.135 0.020 0.175 0.024 0.060-0.052 0.037-0.2-0.002-0.013-0.004-0.025-0.002-0.036zM14.405 5.815s0.014-0.025 0.024-0.063c-0.018 0.004-0.036 0.005-0.053 0.008 0.025 0.022 0.030 0.055 0.030 0.055zM15.833 5.618c-0.013 0.024-0.020 0.053-0.020 0.084 0 0.005 0 0.010 0.001 0.015l-0-0.001c0.013 0.111 0.037 0 0.113-0.025 0.045-0.017 0.056-0.033 0.064-0.074-0.049-0.001-0.102 0.001-0.157 0.001zM8.526 8.931l0.157 0.010 0.199-0.125 0.2 0.060-0.113 0.052s-0.11 0.161-0.136 0.237c-0.026 0.074 0.298 0.061 0.298 0.061s0.087-0.237 0.087-0.337c0-0.098 0.261-0.163 0.261-0.163l0.074-0.2 0.126 0.089s0.073-0.138 0.061-0.2c-0.014-0.063-0.237-0.076-0.237-0.076l0.223-0.113 0.225 0.063-0.051 0.436h0.224l0.050 0.076s-0.311 0.174-0.374 0.174c-0.060 0-0.2 0.164-0.2 0.164l-0.124 0.139s0.051 0.075 0.149 0.1c0.098 0.024 0.098 0.087 0.098 0.087s0.138-0.050 0.138-0.125c0-0.075-0.050-0.098-0.050-0.098l0.187-0.213c0.073-0.088 0.473-0.263 0.548-0.351 0.073-0.087 0.024-0.149 0.024-0.149l0.187-0.113s0.050-0.237 0.075-0.299c0.024-0.062 0.287-0.188 0.474-0.326s0.212-0.149 0.46-0.213c0.251-0.063 0.075-0.089 0.062-0.164-0.012-0.075-0.212 0.101-0.212 0.101l-0.299-0.089s0.124 0 0.249-0.099c0.126-0.098 0.1-0.024 0.187-0.062 0.089-0.037 0.062-0.076 0.062-0.076h0.137s0.113-0.111 0.175-0.212c0.062-0.099 0.2-0.288 0.2-0.288s-0.311 0.177-0.375 0.2c-0.060 0.024-0.162-0.024-0.236-0.024-0.076 0-0.186 0.124-0.312 0.174-0.124 0.052-0.262 0.126-0.262 0.126l-0.185-0.037-0.149 0.060-0.361 0.151s0.061-0.050 0.213-0.138l0.297-0.176 0.237-0.061 0.020-0.122c-0.095 0.051-0.19 0.098-0.286 0.153-0.921 0.545-1.711 1.185-2.396 1.926l-0.006 0.007zM17.909 19.105c0.148-0.402 0.394-1.23 0.623-2.066l0.097-0.415c2.021-7.55 2.253-14.049 0.524-14.513-0.745-0.2-1.733 0.754-2.777 2.507h-0.033c1.171 0.028 2.331 0.237 3.433 0.619 0.021 0.361 0.023 0.695 0.021 0.964h0.001c-0.001 0.218-0.004 0.392-0.008 0.494-0.034 0.948-0.12 1.92-0.245 2.898-0.043-0.015-0.092-0.027-0.143-0.031l-0.002-0c-0.134-0.009-0.137-0.002-0.136 0-0.002-0.002-0.113-0.095-0.153-0.166-0.043-0.071-0.124-0.124-0.279-0.176-0.156-0.053-0.145 0.062-0.145 0.062s-0.144 0.102-0.331 0.083c-0.178-0.021-0.222 0.179-0.225 0.194h-0.001l-0.134 0.115s-0.072 0.124-0.155 0.124c-0.001 0-0.003 0-0.004 0-0.050 0-0.098 0.007-0.144 0.020l0.004-0.001s-0.041 0.154-0.041 0.237-0.083 0.095-0.083 0.095-0.103 0.020-0.175 0.052c-0.072 0.030-0.144 0.072-0.217 0.113-0.072 0.041-0.041 0.073-0.185 0.156-0.144 0.082-0.196 0.113-0.196 0.113l-0.196 0.041 0.101 0.103-0.154 0.031s-0.011 0.092 0.009 0.165c0.020 0.072 0.178 0.083 0.178 0.083s-0.103 0.083-0.228 0.136c-0.124 0.052-0.124 0.071-0.114 0.123s0.082 0.166 0.288 0.217c0.209 0.052 0.062-0.010 0.154-0.061 0.095-0.053 0.196-0.083 0.196-0.083s0.127 0.207 0.127 0.299c0 0.092-0.031 0.268-0.020 0.332 0.010 0.062 0.113-0.021 0.113-0.021l-0.092 0.103s0.020 0.185 0.020 0.239c0 0.052 0.184 0.020 0.184-0.031s0.101-0.136 0.257-0.145c0.154-0.011 0.135-0.030 0.135-0.155s0.030-0.29 0.030-0.29l0.177-0.052s0.101-0.076 0.167-0.139c0.015-0.014 0.028-0.030 0.040-0.046l0.001-0.001c0.021-0.033-0.004-0.066-0.040-0.098-0.031-0.026-0.071-0.053-0.095-0.076-0.053-0.052-0.072-0.217-0.072-0.321 0-0.103 0-0.062 0.012-0.135 0.009-0.066 0.087-0.071 0.155-0.088 0.011-0.003 0.017-0.005 0.023-0.007l-0.004 0.001c0.072-0.020 0.165-0.143 0.299-0.207s-0.072-0.072-0.072-0.072 0.021-0.113 0.041-0.207c0.020-0.094 0.288 0.031 0.288 0.031l0.104 0.123-0.124 0.094-0.142 0.215-0.206 0.27 0.165 0.433s0.143 0.072 0.236 0.060c0.099-0.013 0.187-0.053 0.259-0.113l-0.001 0.001c0.027-0.021 0.158-0.057 0.302-0.089l-0.049 0.289c-0.047 0.019-0.1-0.020-0.217-0.020-0.161 0-0.204 0.074-0.35 0.088-0.147 0.016-0.059 0.117-0.059 0.19s0.205 0.161 0.205 0.161l-0.161 0.103s-0.074-0.161-0.218-0.146c-0.144 0.015-0.088 0.204-0.177 0.277-0.087 0.073 0.059 0.295 0.059 0.295s-0.105 0.012-0.201 0.066c-0.011 0.008-0.022 0.013-0.033 0.020-0.101 0.072-0.131 0.015-0.131 0.015s-0.059-0.088-0.131-0.088c-0.074 0-0.178 0.117-0.251 0.145-0.074 0.029-0.321 0-0.321 0l-0.162-0.177-0.134 0.134s-0.116-0.030-0.19-0.119c-0.071-0.089 0-0.072-0.015-0.146-0.014-0.072-0.043-0.072-0.043-0.072l0.073-0.117 0.19-0.118s0.043-0.263-0.044-0.379c-0.089-0.118-0.089 0.117-0.089 0.117l-0.292 0.19 0.015 0.396-0.059 0.175-0.114-0.028-0.073 0.088s-0.073-0.044-0.188-0.088c-0.119-0.044-0.323 0.146-0.323 0.146l-0.026 0.065-0.047 0.11-0.161-0.030-0.088 0.103h-0.177c-0.075 0-0.029 0.131-0.029 0.131s-0.050 0.059-0.107 0.081l-0.025-0.034c-0.085-0.012-0.107 0-0.159 0.043-0.027 0.019-0.058 0.033-0.092 0.040l-0.002 0c-0.041 0.009-0.078 0.014-0.078 0.014l-0.075-0.191s-0.053-0.098-0.105-0.021c-0.054 0.076-0.033 0.127-0.033 0.127l0.022 0.13-0.107 0.010-0.021-0.006-0.053-0.016-0.184-0.111-0.028-0.016s-0.127-0.022-0.104 0.062c0.020 0.085 0.127 0.191 0.127 0.245 0 0.007 0.003 0.011 0.007 0.014 0.032 0.037 0.185 0.026 0.185 0.094 0 0.075-0.098 0.16-0.098 0.16s0.075 0.063 0.075 0.16c0 0.096-0.022 0.234-0.044 0.296-0.021 0.064-0.073 0.043-0.095 0.108-0.006 0.017-0.017 0.034-0.026 0.052-0.033 0.056-0.080 0.108-0.080 0.108s-0.16 0.043-0.214 0.021c-0.055-0.021-0.097-0.098-0.192-0.117-0.011-0.003-0.023-0.005-0.035-0.005-0.006 0-0.012 0-0.018 0.001l0.001-0c-0.037 0.005-0.043 0.024-0.138-0.040-0.129-0.086-0.17-0.117-0.256-0.149-0.085-0.030-0.127-0.106-0.127-0.106l-0.039-0.021c-0.038-0.025-0.082-0.043-0.129-0.052l-0.002-0c-0.053 0-0.138 0.097-0.138 0.097s0.020 0.085 0 0.191c-0.020 0.106 0.020 0.16-0.042 0.203s-0.075 0.010-0.085 0.097c-0.012 0.085 0.043 0.043-0.042 0.128-0.077 0.078-0.041 0.076-0.097 0.115-0.007 0.004-0.014 0.009-0.021 0.014-0.087 0.053-0.117 0.043-0.172 0.129-0.046 0.073-0.073 0.161-0.073 0.256v0c0 0.074 0.233 0.34 0.233 0.34l0.033 0.009c0.037 0.012 0.097 0.037 0.097 0.087 0 0.076-0.088 0.107 0 0.161 0.085 0.054 0.042 0.063 0.095 0.097 0.026 0.015 0.185 0.050 0.344 0.084 0.174 0.034 0.347 0.065 0.347 0.065l0.117-0.085h0.202l0.053-0.182 0.16-0.010 0.011-0.172s-0.021-0.172 0.031-0.172c0.025 0 0.104-0.044 0.178-0.088 0.073-0.046 0.142-0.093 0.142-0.093s0.040 0.009 0.095 0.016c0.081 0.013 0.191 0.021 0.224-0.006 0.054-0.041 0.171-0.213 0.171-0.213s-0.024-0.136 0.003-0.195c0.008-0.019 0.020-0.028 0.039-0.028 0.085 0 0.289 0.011 0.352 0.075s0.222 0.148 0.287 0.138c0.056-0.010 0.143-0.066 0.207-0.11l0.026-0.020c0.023-0.017 0.087-0.060 0.155-0.113l0.005 0.008s0.148 0.020 0.191 0.097c0.043 0.074 0.063 0.213 0.043 0.297s0.138 0.16 0.191 0.223c0.053 0.063 0.31 0.405 0.394 0.512 0.085 0.105 0.255 0.297 0.255 0.297l0.085 0.204-0.18 0.128s-0.192-0.011-0.257-0.033c-0.063-0.021-0.116 0.043-0.116 0.043s-0.044-0.021-0.139-0.105c-0.096-0.086-0.031 0.011-0.149 0.075-0.117 0.063 0.149 0.159 0.215 0.213 0.062 0.056 0.147 0.148 0.19 0.204 0.042 0.053 0.149-0.020 0.149-0.107 0-0.086 0.011-0.16 0.011-0.16h0.19l0.119-0.137 0.098-0.085 0.043-0.119-0.075-0.213s0.13-0.043 0.178-0.043c0.056 0 0.107 0.16 0.107 0.16l0.056 0.021s0-0.128-0.032-0.181c-0.031-0.055-0.202-0.181-0.202-0.181s-0.191-0.075-0.248-0.117c-0.053-0.043-0.177-0.267-0.244-0.383-0.063-0.118-0.020-0.13-0.031-0.181-0.011-0.053-0.119-0.118-0.161-0.19-0.043-0.076-0.030-0.181-0.030-0.181s0.096-0.064 0.202-0.128c0.038-0.023 0.056-0.039 0.058-0.048 0.043 0.044 0.153 0.172 0.153 0.249 0 0.097 0.042 0.203 0.063 0.267s0.149 0.117 0.32 0.149c0.171 0.031 0.116 0.149 0.116 0.149s0.16 0.192 0.18 0.32c0.020 0.129 0.020 0.193 0.031 0.352s0.087 0.179 0.137 0.332c0.054 0.148 0.073 0.148 0.107 0.264 0.015 0.055 0.025 0.108 0.044 0.162-0.105 0.391-0.217 0.785-0.335 1.181-0.099 0.093-0.171 0.431-0.171 0.431s-0.032 0.020-0.078 0.031l-0.221-0.053c-0.111-0.121-0.37-0.169-0.506-0.258-0.139-0.095-0.139-0.296-0.249-0.39-0.109-0.095-0.187-0.046-0.187-0.046s-0.31-0.063-0.373-0.14c-0.048-0.058-0.092-0.109-0.137-0.158l0.003 0.004c-0.039-0.046-0.070-0.078-0.070-0.078s0.030-0.030 0.070-0.061c0.046-0.040 0.105-0.085 0.148-0.095 0.077-0.017-0.031-0.173-0.124-0.328s0.249-0.203 0.232-0.28c-0.016-0.076-0.164-0.078-0.256-0.121l-0.008-0.003c-0.094-0.048-0.309 0-0.309 0l-0.296-0.061s-0.094 0.030-0.171 0.061c-0.028 0.011-0.063 0.006-0.101-0.012-0.078-0.038-0.14-0.1-0.177-0.176l-0.001-0.002c-0.042-0.085-0.13-0.068-0.218-0.073-0.046-0.002-0.088-0.015-0.125-0.036l0.001 0.001c-0.030-0.021-0.068-0.033-0.109-0.033-0.002 0-0.004 0-0.005 0h0c-0.069 0.002-0.132 0.039-0.213 0.050-0.101 0.013-0.236 0.046-0.325 0.057-0.014 0.003-0.030 0.006-0.047 0.006h-0c-0.078 0-0.172 0.061-0.28 0.124-0.109 0.062-0.139-0.172-0.139-0.172s-0.033 0-0.095-0.011c-0.107-0.021-0.201-0.049-0.29-0.086l0.010 0.004c-0.233-0.095-0.125-0.234-0.125-0.234s-0.043 0.036-0.131 0.113c-0.030 0.025-0.062 0.056-0.101 0.090-0.156 0.139-0.202 0.201-0.342 0.187-0.138-0.017-0.217 0.047-0.311 0.094-0.086 0.044-0.276 0.375-0.304 0.429-1.852-0.638-3.684-1.387-5.338-2.267-0.21-0.111-0.319-0.172-0.426-0.234l0.095 0.050v0.001c-0.399-0.226-0.699-0.41-0.994-0.603l0.074 0.046c0.241-1.228 0.646-2.32 1.197-3.32l-0.030 0.059c-2.036 0.030-3.355 0.412-3.554 1.157-0.462 1.735 5.268 4.779 12.798 6.805 0.856 0.219 1.693 0.422 2.511 0.604zM6.156 10.536v0zM15.621 15.915c-0.052 0.020-0.052 0.136-0.052 0.136s0.041 0.053 0.094 0.062c0.014 0.002 0.030 0.003 0.046 0.003 0.030 0 0.059-0.004 0.086-0.012l-0.002 0.001c0.025-0.006 0.056-0.013 0.090-0.023 0.103-0.030 0.041-0.083 0.062-0.156s0.020-0.168 0.062-0.241-0.084-0.126-0.084-0.126-0.097 0.136-0.132 0.191l-0.004 0.007c-0.031 0.051-0.113 0.136-0.166 0.157zM15.792 15.356c0.056-0.011 0.178-0.044 0.205-0.11 0.030-0.083 0.020-0.041 0.052-0.136s-0.084 0.031-0.084 0.031l-0.136 0.083-0.037 0.081-0.024 0.055s0.008 0 0.024-0.006z"></path>
</svg>
<svg id="icon-plant" viewBox="0 0 36 32">
<path d="M18.656 12.767c-0.040 0.050-0.088 0.088-0.131 0.133 0.024-0.519 0.033-1.045 0.013-1.577 0.003-0.469-0.063-0.936-0.105-1.395-0.042-0.458-0.158-0.903-0.229-1.334-0.11-0.426-0.244-0.831-0.358-1.213l-0.464-1.034-0.514-0.803c-0.136-0.251-0.343-0.404-0.469-0.562-0.272-0.298-0.43-0.466-0.43-0.466l0.396 0.496c0.113 0.165 0.304 0.329 0.42 0.586 0.133 0.246 0.282 0.522 0.446 0.823 0.116 0.321 0.242 0.669 0.377 1.038 0.082 0.382 0.185 0.782 0.261 1.201 0.037 0.425 0.118 0.858 0.126 1.307 0.009 0.447 0.039 0.899 0.002 1.355-0.015 0.648-0.091 1.285-0.18 1.908-0.35-0.279-1.315-1.377-1.743-1.851-0.48-0.54-0.916-1.14-1.291-1.781l-0.029-0.053c-0.402-0.67-0.697-1.398-0.926-2.127-0.462-1.465-0.49-2.951-0.381-4.223 0.059-0.646 0.108-1.237 0.087-1.726-0.022-0.222-0.026-0.464-0.057-0.604-0.029-0.148-0.048-0.227-0.048-0.227l0.225-0.075c0.145-0.039 0.393-0.117 0.673-0.106 0.577-0.019 1.4 0.169 2.196 0.6s1.554 1.091 2.151 1.872c0.615 0.776 1.055 1.685 1.341 2.615 0.276 0.935 0.403 1.897 0.336 2.821-0.050 0.934-0.256 1.807-0.593 2.612l0.019-0.052c-0.325 0.758-0.727 1.397-1.122 1.84zM15.34 14.136c0.011-0.061 0.008-0.121 0.011-0.18-0.245-0.307-0.503-0.612-0.778-0.905-0.232-0.268-0.503-0.501-0.754-0.741-0.253-0.242-0.539-0.436-0.795-0.647-0.274-0.188-0.553-0.353-0.809-0.514l-0.78-0.358c-0.255-0.074-0.487-0.144-0.693-0.202-0.202-0.074-0.395-0.060-0.547-0.088l-0.477-0.050 0.472 0.085c0.148 0.039 0.336 0.037 0.531 0.125 0.197 0.074 0.421 0.157 0.664 0.246l0.73 0.404c0.238 0.176 0.496 0.353 0.748 0.555 0.234 0.223 0.496 0.43 0.724 0.681 0.227 0.252 0.47 0.494 0.676 0.772 0.315 0.377 0.589 0.777 0.848 1.175-0.338 0.018-1.435-0.128-1.915-0.185-0.534-0.070-1.11-0.194-1.665-0.387-0.563-0.183-1.094-0.449-1.587-0.75-0.995-0.605-1.75-1.438-2.322-2.216-0.287-0.397-0.554-0.758-0.81-1.026-0.122-0.116-0.245-0.252-0.333-0.316l-0.14-0.106s0.032-0.054 0.090-0.157c0.064-0.093 0.167-0.261 0.331-0.394 0.319-0.298 0.884-0.601 1.552-0.752s1.429-0.153 2.158-0.005c0.738 0.136 1.439 0.434 2.066 0.822 0.624 0.396 1.174 0.881 1.596 1.442 0.395 0.497 0.717 1.075 0.936 1.701l0.013 0.041c0.194 0.595 0.283 1.157 0.278 1.607 0.003 0.048-0.007 0.094-0.008 0.14 0.302 0.381 0.569 0.758 0.816 1.127 0.447-0.072 0.963-0.114 1.488-0.115h0.001c0.061 0 0.118 0.013 0.179 0.014 0.071-0.325 0.138-0.656 0.2-1.006 0.039-0.241 0.21-0.829 0.323-0.905 0.064-0.052 0.112-0.113 0.168-0.17-0.041 0.798-0.112 1.528-0.216 2.248l0.015-0.13c0.174 0.012 0.351 0.019 0.524 0.040 0.28-0.426 0.598-0.873 0.951-1.318 0.002 0.060 0 0.12 0.010 0.182 0.026 0.099-0.169 0.519-0.265 0.675-0.105 0.171-0.196 0.336-0.291 0.502 3.474 0.568 6.339 2.949 7.591 6.142-0.067-0.051-0.286-0.198-0.507-0.343l-0.166-0.103c-1.761-1.148-3.94-1.241-6.421-0.247-0.862 0.346-1.711 0.392-2.541 0.144-1.574-0.477-3.131-0.521-4.602-0.526-0.98 0-1.791 0.391-2.35 1.128-0.14 0.183-0.219 0.402-0.234 0.627-0.758-0.135-1.2-0.204-1.49-0.206l-0.233-0.029c1.127-3.331 3.98-5.865 7.495-6.537-0.065-0.113-0.123-0.222-0.193-0.337-0.098-0.157-0.291-0.576-0.265-0.677zM20.581 12.836c-0.276 0.295-0.534 0.598-0.778 0.905-0.003-0.046-0.010-0.093-0.009-0.14-0.005-0.451 0.084-1.013 0.278-1.607 0.232-0.667 0.553-1.245 0.956-1.755l-0.009 0.012c0.423-0.562 0.975-1.046 1.597-1.442 0.627-0.389 1.328-0.686 2.066-0.823 0.731-0.148 1.49-0.145 2.158 0.005 0.669 0.152 1.232 0.455 1.551 0.753 0.165 0.133 0.266 0.301 0.33 0.395l0.091 0.157-0.141 0.104c-0.087 0.064-0.21 0.2-0.333 0.315-0.255 0.268-0.522 0.63-0.81 1.027-0.573 0.777-1.327 1.61-2.321 2.215-0.492 0.3-1.027 0.568-1.587 0.749-0.557 0.193-1.132 0.317-1.667 0.387-0.48 0.057-1.576 0.203-1.915 0.187 0.261-0.399 0.534-0.801 0.848-1.178 0.206-0.278 0.451-0.521 0.678-0.771 0.227-0.253 0.488-0.458 0.724-0.682 0.25-0.201 0.507-0.379 0.747-0.555l0.73-0.404c0.243-0.089 0.466-0.174 0.665-0.246 0.194-0.089 0.383-0.088 0.529-0.125l0.474-0.085s-0.174 0.018-0.478 0.051c-0.15 0.026-0.344 0.012-0.546 0.087-0.206 0.060-0.439 0.129-0.694 0.202l-0.779 0.358c-0.255 0.163-0.534 0.325-0.808 0.513-0.255 0.212-0.542 0.406-0.795 0.647-0.251 0.241-0.523 0.474-0.751 0.742zM35.481 31.525l-8.848 0.018c-1.415-2.422-3.504-3.524-6.254-3.511-1.568 0.010-3.135-0.052-4.699 0.018-1.378 0.062-2.66-0.144-3.866-0.822-0.568-0.32-1.208-0.426-1.837-0.569-1.523-0.345-3.009-0.804-4.534-1.181-2.144-0.529-2.653-0.836-4.234-1.462-0.259-0.103-0.575-0.020-0.699-0.34-0.118-0.307-0.135-0.629 0.085-0.892 0.383-0.455 0.771-0.673 1.458-0.633 0.011 0.001 0.023 0.002 0.036 0.002 0.043 0 0.083-0.009 0.12-0.024l-0.002 0.001c1.236-0.698 1.234-0.225 2.491-0.121l3.535 0.453c0.623-0.046 5.296 1.087 5.564 0.551-1.445 0-3.131-1.128-2.925-1.399 0.368-0.487 0.882-0.703 1.501-0.701 1.443 0.005 2.866 0.051 4.281 0.478 1.061 0.322 2.152 0.269 3.256-0.173 1.8-0.72 3.735-0.955 5.432 0.149 2.092 1.362 4.076 2.896 5.594 4.955 1.763 2.397 2.615 2.945 4.545 5.205z"></path>
</svg>
</svg>
